# xmcd CD database file generated by Grip 2.6
# 
# Track frame offsets:
#       150
#       15405
#       31947
#       43767
#       62347
#       73470
#       87455
#       100510
#       115275
#       134260
#       150535
#       164482
#       182707
#       206132
#       219082
#       230740
#       252040
#       268457
# 
# Disc length: 3823 seconds
# 
# Revision: 3
# Processed by: cddbd v1.4b41PL3 Copyright (c) Steve Scherf et al.
# Submitted via: Grip 2.6
# 
DISCID=fe0eed12
DTITLE=John Hammond - John Hammond on Vanguard
DYEAR=1900
DGENRE=
TTITLE0=Two Trains Running
TTITLE1=Give Me a 32-20
TTITLE2=Maybelline
TTITLE3=Louise
TTITLE4=This Train
TTITLE5=East St. Louis Blues
TTITLE6=Going Back To Florida
TTITLE7=Mean Old Frisco
TTITLE8=I Got a Letter This Morning
TTITLE9=Alabama Woman Blues
TTITLE10=The Hoochie Coochie Man
TTITLE11=Crossroads Blues
TTITLE12=See That My Grave is Kept Clean
TTITLE13=Drop Down Mama
TTITLE14=Me and The Devil
TTITLE15=Ask Me Nice
TTITLE16=Hellbound Blues
TTITLE17=Midnight Hour Blues
EXTD=
EXTT0=
EXTT1=
EXTT2=
EXTT3=
EXTT4=
EXTT5=
EXTT6=
EXTT7=
EXTT8=
EXTT9=
EXTT10=
EXTT11=
EXTT12=
EXTT13=
EXTT14=
EXTT15=
EXTT16=
EXTT17=
PLAYORDER=
